<svg xmlns="http://www.w3.org/2000/svg" xmlns:xlink="http://www.w3.org/1999/xlink" width="250" zoomAndPan="magnify" viewBox="0 0 187.5 225" height="300" preserveAspectRatio="xMidYMid meet" version="1.0"><defs><clipPath id="1b9fcaa5f7"><path d="M 48.621094 67.621094 L 138.382812 67.621094 L 138.382812 157.378906 L 48.621094 157.378906 Z M 48.621094 67.621094 " clip-rule="nonzero"/></clipPath></defs><g clip-path="url(#1b9fcaa5f7)"><path fill="#ffffff" d="M 93.5 67.621094 C 68.753906 67.621094 48.621094 87.753906 48.621094 112.5 C 48.621094 137.246094 68.753906 157.378906 93.5 157.378906 C 118.246094 157.378906 138.382812 137.246094 138.382812 112.5 C 138.382812 87.753906 118.246094 67.621094 93.5 67.621094 Z M 68.292969 142.574219 C 68.710938 129.015625 79.84375 118.109375 93.5 118.109375 C 107.160156 118.109375 118.289062 129.015625 118.707031 142.574219 C 111.878906 148.304688 103.089844 151.769531 93.5 151.769531 C 83.910156 151.769531 75.121094 148.304688 68.292969 142.574219 Z M 79.476562 98.476562 C 79.476562 90.742188 85.765625 84.449219 93.5 84.449219 C 101.234375 84.449219 107.527344 90.742188 107.527344 98.476562 C 107.527344 106.207031 101.234375 112.5 93.5 112.5 C 85.765625 112.5 79.476562 106.207031 79.476562 98.476562 Z M 123.777344 137.480469 C 121.746094 126.992188 114.390625 118.410156 104.652344 114.613281 C 109.769531 111.070312 113.136719 105.160156 113.136719 98.476562 C 113.136719 87.648438 104.324219 78.839844 93.5 78.839844 C 82.675781 78.839844 73.867188 87.648438 73.867188 98.476562 C 73.867188 105.160156 77.230469 111.070312 82.351562 114.617188 C 72.609375 118.414062 65.253906 126.996094 63.21875 137.480469 C 57.609375 130.6875 54.230469 121.980469 54.230469 112.5 C 54.230469 90.84375 71.847656 73.230469 93.5 73.230469 C 115.15625 73.230469 132.769531 90.84375 132.769531 112.5 C 132.769531 121.980469 129.394531 130.6875 123.777344 137.480469 Z M 123.777344 137.480469 " fill-opacity="1" fill-rule="nonzero"/></g></svg>