<svg xmlns="http://www.w3.org/2000/svg" xmlns:xlink="http://www.w3.org/1999/xlink" width="250" zoomAndPan="magnify" viewBox="0 0 187.5 225" height="300" preserveAspectRatio="xMidYMid meet" version="1.0"><defs><clipPath id="631cebed5d"><path d="M 48.621094 67.621094 L 138.382812 67.621094 L 138.382812 157.378906 L 48.621094 157.378906 Z M 48.621094 67.621094 " clip-rule="nonzero"/></clipPath></defs><g clip-path="url(#631cebed5d)"><path fill="#ffffff" d="M 75.546875 139.429688 C 70.589844 139.429688 66.617188 143.445312 66.617188 148.402344 C 66.617188 153.363281 70.589844 157.378906 75.546875 157.378906 C 80.507812 157.378906 84.523438 153.363281 84.523438 148.402344 C 84.523438 143.445312 80.507812 139.429688 75.546875 139.429688 Z M 48.621094 67.621094 L 48.621094 76.597656 L 57.597656 76.597656 L 73.730469 110.636719 L 67.671875 121.632812 C 66.976562 122.933594 66.574219 124.394531 66.574219 125.964844 C 66.574219 130.921875 70.589844 134.941406 75.546875 134.941406 L 129.40625 134.941406 L 129.40625 125.964844 L 77.457031 125.964844 C 76.828125 125.964844 76.332031 125.46875 76.332031 124.84375 C 76.332031 124.640625 76.378906 124.460938 76.46875 124.304688 L 80.484375 116.988281 L 113.921875 116.988281 C 117.289062 116.988281 120.226562 115.125 121.773438 112.367188 L 137.820312 83.238281 C 138.179688 82.609375 138.382812 81.871094 138.382812 81.082031 C 138.382812 78.59375 136.363281 76.597656 133.894531 76.597656 L 67.539062 76.597656 L 63.273438 67.621094 Z M 120.429688 139.429688 C 115.46875 139.429688 111.496094 143.445312 111.496094 148.402344 C 111.496094 153.363281 115.46875 157.378906 120.429688 157.378906 C 125.386719 157.378906 129.40625 153.363281 129.40625 148.402344 C 129.40625 143.445312 125.386719 139.429688 120.429688 139.429688 Z M 120.429688 139.429688 " fill-opacity="1" fill-rule="nonzero"/></g></svg>