<svg xmlns="http://www.w3.org/2000/svg" xmlns:xlink="http://www.w3.org/1999/xlink" width="300" zoomAndPan="magnify" viewBox="0 0 224.87999 225" height="300" preserveAspectRatio="xMidYMid meet" version="1.0"><defs><clipPath id="6bc012798c"><path d="M 57.914062 57.972656 L 166.605469 57.972656 L 166.605469 166.664062 L 57.914062 166.664062 Z M 57.914062 57.972656 " clip-rule="nonzero"/></clipPath></defs><g clip-path="url(#6bc012798c)"><path fill="#000000" d="M 112.257812 57.972656 C 82.246094 57.972656 57.914062 82.304688 57.914062 112.320312 C 57.914062 142.332031 82.246094 166.664062 112.257812 166.664062 C 142.273438 166.664062 166.605469 142.332031 166.605469 112.320312 C 166.605469 82.304688 142.273438 57.972656 112.257812 57.972656 Z M 79.136719 86.324219 L 145.3125 86.324219 C 145.476562 86.324219 145.589844 86.398438 145.652344 86.554688 C 145.714844 86.707031 145.6875 86.839844 145.566406 86.953125 L 123.320312 108.066406 L 123.28125 108.105469 L 116.640625 114.40625 C 116.324219 114.710938 115.980469 114.980469 115.609375 115.214844 C 115.242188 115.453125 114.851562 115.652344 114.445312 115.816406 C 114.039062 115.976562 113.617188 116.097656 113.1875 116.179688 C 112.757812 116.261719 112.324219 116.300781 111.882812 116.296875 C 111.445312 116.296875 111.011719 116.25 110.582031 116.164062 C 110.152344 116.078125 109.734375 115.953125 109.328125 115.789062 C 108.921875 115.621094 108.535156 115.417969 108.171875 115.175781 C 107.804688 114.9375 107.464844 114.664062 107.148438 114.359375 L 101 108.394531 C 100.988281 108.386719 100.976562 108.375 100.96875 108.363281 L 78.878906 86.953125 C 78.761719 86.835938 78.734375 86.703125 78.796875 86.550781 C 78.855469 86.398438 78.972656 86.324219 79.136719 86.324219 Z M 76.015625 134.660156 L 76.015625 89.246094 C 76.015625 89.082031 76.089844 88.972656 76.238281 88.910156 C 76.386719 88.84375 76.519531 88.871094 76.636719 88.980469 L 97.625 109.335938 C 97.695312 109.402344 97.730469 109.480469 97.738281 109.578125 C 97.742188 109.671875 97.714844 109.757812 97.652344 109.832031 L 76.660156 134.898438 C 76.550781 135.027344 76.417969 135.066406 76.257812 135.007812 C 76.09375 134.949219 76.015625 134.832031 76.015625 134.660156 Z M 145.992188 138.3125 L 78.523438 138.3125 C 78.367188 138.3125 78.257812 138.242188 78.191406 138.101562 C 78.125 137.960938 78.144531 137.832031 78.242188 137.710938 L 99.792969 111.980469 C 99.859375 111.898438 99.945312 111.855469 100.054688 111.851562 C 100.160156 111.84375 100.25 111.878906 100.328125 111.953125 L 105.042969 116.523438 C 105.957031 117.414062 107.003906 118.097656 108.183594 118.582031 C 109.363281 119.0625 110.589844 119.304688 111.863281 119.3125 L 111.917969 119.3125 C 113.183594 119.3125 114.402344 119.078125 115.578125 118.609375 C 116.753906 118.140625 117.800781 117.46875 118.714844 116.597656 L 123.933594 111.644531 C 124.011719 111.570312 124.101562 111.539062 124.207031 111.542969 C 124.3125 111.550781 124.398438 111.59375 124.464844 111.671875 L 146.273438 137.710938 C 146.371094 137.832031 146.390625 137.960938 146.324219 138.101562 C 146.257812 138.242188 146.148438 138.3125 145.992188 138.3125 Z M 148.5 134.660156 C 148.5 134.832031 148.421875 134.949219 148.261719 135.003906 C 148.101562 135.0625 147.964844 135.027344 147.855469 134.894531 L 126.632812 109.554688 C 126.574219 109.480469 126.542969 109.394531 126.550781 109.300781 C 126.554688 109.203125 126.59375 109.121094 126.664062 109.054688 L 147.886719 88.914062 C 148 88.804688 148.132812 88.78125 148.28125 88.84375 C 148.425781 88.910156 148.5 89.019531 148.5 89.179688 Z M 148.5 134.660156 " fill-opacity="1" fill-rule="nonzero"/></g></svg>