<svg xmlns="http://www.w3.org/2000/svg" xmlns:xlink="http://www.w3.org/1999/xlink" width="300" zoomAndPan="magnify" viewBox="0 0 224.87999 225" height="300" preserveAspectRatio="xMidYMid meet" version="1.0"><defs><clipPath id="ef62e05a46"><path d="M 57.914062 57.972656 L 166.605469 57.972656 L 166.605469 166.664062 L 57.914062 166.664062 Z M 57.914062 57.972656 " clip-rule="nonzero"/></clipPath></defs><g clip-path="url(#ef62e05a46)"><path fill="#ffffff" d="M 112.433594 167.015625 C 82.371094 167.015625 57.914062 142.554688 57.914062 112.496094 C 57.914062 82.433594 82.371094 57.972656 112.433594 57.972656 C 142.496094 57.972656 166.957031 82.433594 166.957031 112.496094 C 166.957031 142.554688 142.496094 167.015625 112.433594 167.015625 Z M 112.433594 65.878906 C 86.722656 65.878906 65.8125 86.785156 65.8125 112.496094 C 65.8125 138.199219 86.722656 159.109375 112.433594 159.109375 C 138.136719 159.109375 159.058594 138.199219 159.058594 112.496094 C 159.058594 86.785156 138.136719 65.878906 112.433594 65.878906 Z M 112.433594 65.878906 " fill-opacity="1" fill-rule="nonzero"/></g><path fill="#ffffff" d="M 113.558594 140.789062 C 113.140625 140.628906 112.6875 140.367188 112.6875 139.269531 C 112.6875 138.816406 112.757812 138.292969 112.917969 137.652344 L 119.804688 104.269531 C 119.957031 103.484375 120.035156 102.664062 120.035156 101.84375 C 120.035156 99.6875 119.371094 98.046875 118.058594 96.960938 C 115.121094 94.542969 109.972656 95.015625 101.414062 97.910156 L 100.582031 98.1875 L 100.242188 102.496094 L 101.679688 102.496094 C 106.039062 102.496094 107.089844 102.835938 107.308594 102.941406 C 107.601562 103.082031 107.761719 103.25 107.761719 103.738281 C 107.761719 104.011719 107.726562 104.320312 107.65625 104.660156 C 107.570312 105.113281 107.46875 105.636719 107.371094 106.203125 L 101.058594 136.867188 C 100.765625 138.410156 100.613281 139.734375 100.613281 140.792969 C 100.613281 143.234375 101.320312 145.121094 102.695312 146.398438 C 104.042969 147.640625 105.894531 148.273438 108.191406 148.273438 C 110.878906 148.273438 114.488281 147.527344 119.21875 145.996094 L 120.0625 145.726562 L 120.40625 141.359375 L 118.976562 141.359375 C 115.742188 141.359375 114.25 141.046875 113.558594 140.789062 Z M 113.558594 140.789062 " fill-opacity="1" fill-rule="nonzero"/><path fill="#ffffff" d="M 122.625 78.585938 C 121.324219 77.347656 119.65625 76.714844 117.664062 76.714844 C 115.601562 76.714844 113.859375 77.394531 112.484375 78.726562 C 111.101562 80.0625 110.398438 81.867188 110.398438 84.089844 C 110.398438 86.132812 111.066406 87.832031 112.386719 89.144531 C 113.707031 90.472656 115.394531 91.140625 117.398438 91.140625 C 119.445312 91.140625 121.171875 90.429688 122.550781 89.039062 C 123.921875 87.648438 124.613281 85.84375 124.613281 83.667969 C 124.613281 81.546875 123.949219 79.835938 122.625 78.585938 Z M 122.625 78.585938 " fill-opacity="1" fill-rule="nonzero"/></svg>