<svg xmlns="http://www.w3.org/2000/svg" xmlns:xlink="http://www.w3.org/1999/xlink" width="600" zoomAndPan="magnify" viewBox="0 0 450 74.999997" height="100" preserveAspectRatio="xMidYMid meet" version="1.0"><defs><clipPath id="5e65a0f8c4"><path d="M 7.5 0 L 85 0 L 85 74.25 L 7.5 74.25 Z M 7.5 0 " clip-rule="nonzero"/></clipPath><clipPath id="3c612c918e"><path d="M 97 0 L 174 0 L 174 74.25 L 97 74.25 Z M 97 0 " clip-rule="nonzero"/></clipPath><clipPath id="f5458c3eb3"><path d="M 186 0 L 264 0 L 264 74.25 L 186 74.25 Z M 186 0 " clip-rule="nonzero"/></clipPath><clipPath id="eea1004808"><path d="M 276 0 L 353 0 L 353 74.25 L 276 74.25 Z M 276 0 " clip-rule="nonzero"/></clipPath><clipPath id="0a969d4170"><path d="M 365 0 L 442.5 0 L 442.5 74.25 L 365 74.25 Z M 365 0 " clip-rule="nonzero"/></clipPath><clipPath id="deada63fe5"><path d="M 404 0 L 442.5 0 L 442.5 74.25 L 404 74.25 Z M 404 0 " clip-rule="nonzero"/></clipPath></defs><g clip-path="url(#5e65a0f8c4)"><path fill="#ffb901" d="M 45.878906 -0.0078125 L 54.976562 28.351562 L 84.253906 28.351562 L 60.519531 45.878906 L 69.617188 74.242188 L 45.878906 56.714844 L 22.144531 74.242188 L 31.242188 45.878906 L 7.507812 28.351562 L 36.785156 28.351562 Z M 45.878906 -0.0078125 " fill-opacity="1" fill-rule="nonzero"/></g><g clip-path="url(#3c612c918e)"><path fill="#ffb901" d="M 135.488281 -0.0078125 L 144.480469 28.351562 L 173.863281 28.351562 L 150.128906 45.878906 L 159.226562 74.242188 L 135.488281 56.714844 L 111.753906 74.242188 L 120.746094 45.878906 L 97.011719 28.351562 L 126.390625 28.351562 Z M 135.488281 -0.0078125 " fill-opacity="1" fill-rule="nonzero"/></g><g clip-path="url(#f5458c3eb3)"><path fill="#ffb901" d="M 224.992188 -0.0078125 L 234.089844 28.351562 L 263.367188 28.351562 L 239.632812 45.878906 L 248.726562 74.242188 L 224.992188 56.714844 L 201.257812 74.242188 L 210.355469 45.878906 L 186.621094 28.351562 L 215.894531 28.351562 Z M 224.992188 -0.0078125 " fill-opacity="1" fill-rule="nonzero"/></g><g clip-path="url(#eea1004808)"><path fill="#ffb901" d="M 314.601562 -0.0078125 L 323.59375 28.351562 L 352.976562 28.351562 L 329.242188 45.878906 L 338.335938 74.242188 L 314.601562 56.714844 L 290.867188 74.242188 L 299.859375 45.878906 L 276.125 28.351562 L 305.503906 28.351562 Z M 314.601562 -0.0078125 " fill-opacity="1" fill-rule="nonzero"/></g><g clip-path="url(#0a969d4170)"><path fill="#ffb901" d="M 404.105469 -0.0078125 L 413.203125 28.351562 L 442.480469 28.351562 L 418.746094 45.878906 L 427.839844 74.242188 L 404.105469 56.714844 L 380.371094 74.242188 L 389.46875 45.878906 L 365.734375 28.351562 L 395.007812 28.351562 Z M 404.105469 -0.0078125 " fill-opacity="1" fill-rule="nonzero"/></g><g clip-path="url(#deada63fe5)"><path fill="#dcdcdc" d="M 427.839844 74.242188 L 418.746094 45.878906 L 442.480469 28.351562 L 413.203125 28.351562 L 404.105469 -0.0078125 L 404.105469 56.714844 Z M 427.839844 74.242188 " fill-opacity="1" fill-rule="nonzero"/></g></svg>