<svg xmlns="http://www.w3.org/2000/svg" xmlns:xlink="http://www.w3.org/1999/xlink" width="600" zoomAndPan="magnify" viewBox="0 0 450 74.999997" height="100" preserveAspectRatio="xMidYMid meet" version="1.0"><defs><clipPath id="cfb2d46d47"><path d="M 4.410156 0 L 83 0 L 83 75 L 4.410156 75 Z M 4.410156 0 " clip-rule="nonzero"/></clipPath><clipPath id="5c851d2795"><path d="M 367 0 L 445.410156 0 L 445.410156 75 L 367 75 Z M 367 0 " clip-rule="nonzero"/></clipPath></defs><g clip-path="url(#cfb2d46d47)"><path fill="#ffb901" d="M 43.3125 0 L 52.535156 28.582031 L 82.21875 28.582031 L 58.152344 46.308594 L 67.375 75 L 43.3125 57.269531 L 19.246094 75 L 28.46875 46.308594 L 4.40625 28.582031 L 34.089844 28.582031 Z M 43.3125 0 " fill-opacity="1" fill-rule="nonzero"/></g><path fill="#ffb901" d="M 134.164062 0 L 143.277344 28.582031 L 173.066406 28.582031 L 149.003906 46.308594 L 158.226562 75 L 134.164062 57.269531 L 110.097656 75 L 119.214844 46.308594 L 95.148438 28.582031 L 124.9375 28.582031 Z M 134.164062 0 " fill-opacity="1" fill-rule="nonzero"/><path fill="#ffb901" d="M 224.90625 0 L 234.128906 28.582031 L 263.8125 28.582031 L 239.746094 46.308594 L 248.96875 75 L 224.90625 57.269531 L 200.84375 75 L 210.066406 46.308594 L 186 28.582031 L 215.683594 28.582031 Z M 224.90625 0 " fill-opacity="1" fill-rule="nonzero"/><path fill="#ffb901" d="M 315.757812 0 L 324.875 28.582031 L 354.664062 28.582031 L 330.597656 46.308594 L 339.820312 75 L 315.757812 57.269531 L 291.691406 75 L 300.808594 46.308594 L 276.746094 28.582031 L 306.535156 28.582031 Z M 315.757812 0 " fill-opacity="1" fill-rule="nonzero"/><g clip-path="url(#5c851d2795)"><path fill="#dcdcdc" d="M 406.5 0 L 415.722656 28.582031 L 445.40625 28.582031 L 421.34375 46.308594 L 430.566406 75 L 406.5 57.269531 L 382.4375 75 L 391.660156 46.308594 L 367.59375 28.582031 L 397.277344 28.582031 Z M 406.5 0 " fill-opacity="1" fill-rule="nonzero"/></g></svg>