<svg xmlns="http://www.w3.org/2000/svg" xmlns:xlink="http://www.w3.org/1999/xlink" width="300" zoomAndPan="magnify" viewBox="0 0 224.87999 225" height="300" preserveAspectRatio="xMidYMid meet" version="1.0"><defs><clipPath id="ff658a35b1"><path d="M 65.257812 65.316406 L 159.707031 65.316406 L 159.707031 159.769531 L 65.257812 159.769531 Z M 65.257812 65.316406 " clip-rule="nonzero"/></clipPath></defs><g clip-path="url(#ff658a35b1)"><path fill="#ffffff" d="M 145.589844 159.675781 L 79.285156 159.675781 C 71.550781 159.675781 65.257812 153.382812 65.257812 145.648438 L 65.257812 79.34375 C 65.257812 71.609375 71.550781 65.316406 79.285156 65.316406 L 145.589844 65.316406 C 153.320312 65.316406 159.613281 71.609375 159.613281 79.34375 L 159.613281 145.648438 C 159.613281 153.382812 153.320312 159.675781 145.589844 159.675781 Z M 79.285156 70.417969 C 74.363281 70.417969 70.359375 74.421875 70.359375 79.34375 L 70.359375 145.648438 C 70.359375 150.570312 74.363281 154.574219 79.285156 154.574219 L 145.589844 154.574219 C 150.511719 154.574219 154.515625 150.570312 154.515625 145.648438 L 154.515625 79.34375 C 154.515625 74.421875 150.511719 70.417969 145.589844 70.417969 Z M 79.285156 70.417969 " fill-opacity="1" fill-rule="nonzero"/></g><path fill="#ffffff" d="M 112.4375 139.273438 C 97.671875 139.273438 85.660156 127.261719 85.660156 112.496094 C 85.660156 97.730469 97.671875 85.71875 112.4375 85.71875 C 127.199219 85.71875 139.210938 97.730469 139.210938 112.496094 C 139.210938 127.261719 127.199219 139.273438 112.4375 139.273438 Z M 112.4375 90.820312 C 100.484375 90.820312 90.761719 100.542969 90.761719 112.496094 C 90.761719 124.449219 100.484375 134.171875 112.4375 134.171875 C 124.386719 134.171875 134.113281 124.449219 134.113281 112.496094 C 134.113281 100.542969 124.386719 90.820312 112.4375 90.820312 Z M 112.4375 90.820312 " fill-opacity="1" fill-rule="nonzero"/><path fill="#ffffff" d="M 140.488281 93.371094 C 135.566406 93.371094 131.5625 89.367188 131.5625 84.445312 C 131.5625 79.523438 135.566406 75.519531 140.488281 75.519531 C 145.410156 75.519531 149.414062 79.523438 149.414062 84.445312 C 149.414062 89.367188 145.410156 93.371094 140.488281 93.371094 Z M 140.488281 80.621094 C 138.378906 80.621094 136.664062 82.335938 136.664062 84.445312 C 136.664062 86.554688 138.378906 88.269531 140.488281 88.269531 C 142.597656 88.269531 144.3125 86.554688 144.3125 84.445312 C 144.3125 82.335938 142.597656 80.621094 140.488281 80.621094 Z M 140.488281 80.621094 " fill-opacity="1" fill-rule="nonzero"/></svg>