<svg xmlns="http://www.w3.org/2000/svg" xmlns:xlink="http://www.w3.org/1999/xlink" width="300" zoomAndPan="magnify" viewBox="0 0 224.87999 225" height="300" preserveAspectRatio="xMidYMid meet" version="1.0"><defs><clipPath id="9dc4d38f4b"><path d="M 58.597656 58.65625 L 166.539062 58.65625 L 166.539062 166.601562 L 58.597656 166.601562 Z M 58.597656 58.65625 " clip-rule="nonzero"/></clipPath></defs><path fill="#000000" d="M 112.570312 85.339844 C 108.3125 85.339844 104.859375 88.792969 104.859375 93.046875 L 104.859375 99.730469 L 120.277344 99.730469 L 120.277344 93.046875 C 120.277344 88.792969 116.828125 85.339844 112.570312 85.339844 Z M 112.570312 85.339844 " fill-opacity="1" fill-rule="nonzero"/><path fill="#000000" d="M 112.457031 110.007812 C 108.335938 110.066406 104.953125 113.421875 104.863281 117.542969 C 104.800781 120.46875 106.367188 123.03125 108.714844 124.390625 L 108.714844 129.277344 C 108.714844 131.40625 110.441406 133.132812 112.570312 133.132812 C 114.699219 133.132812 116.421875 131.40625 116.421875 129.277344 L 116.421875 124.390625 C 118.726562 123.058594 120.277344 120.566406 120.277344 117.714844 C 120.277344 113.421875 116.765625 109.945312 112.457031 110.007812 Z M 112.457031 110.007812 " fill-opacity="1" fill-rule="nonzero"/><g clip-path="url(#9dc4d38f4b)"><path fill="#000000" d="M 112.570312 58.65625 C 82.761719 58.65625 58.597656 82.820312 58.597656 112.628906 C 58.597656 142.4375 82.761719 166.601562 112.570312 166.601562 C 142.375 166.601562 166.539062 142.4375 166.539062 112.628906 C 166.539062 82.820312 142.375 58.65625 112.570312 58.65625 Z M 140.832031 135.703125 C 140.832031 139.957031 137.382812 143.410156 133.125 143.410156 L 92.015625 143.410156 C 87.757812 143.410156 84.304688 139.957031 84.304688 135.703125 L 84.304688 107.4375 C 84.304688 103.179688 87.757812 99.730469 92.015625 99.730469 L 97.152344 99.730469 L 97.152344 93.050781 C 97.152344 84.535156 104.054688 77.632812 112.570312 77.632812 C 121.082031 77.632812 127.984375 84.535156 127.984375 93.050781 L 127.984375 99.730469 L 133.125 99.730469 C 137.382812 99.730469 140.832031 103.179688 140.832031 107.4375 Z M 140.832031 135.703125 " fill-opacity="1" fill-rule="nonzero"/></g></svg>