<svg xmlns="http://www.w3.org/2000/svg" xmlns:xlink="http://www.w3.org/1999/xlink" width="300" zoomAndPan="magnify" viewBox="0 0 224.87999 225" height="300" preserveAspectRatio="xMidYMid meet" version="1.0"><defs><clipPath id="b43f646d53"><path d="M 68 80.398438 L 109 80.398438 L 109 144.863281 L 68 144.863281 Z M 68 80.398438 " clip-rule="nonzero"/></clipPath><clipPath id="f6d1cc739c"><path d="M 116 80.398438 L 157.414062 80.398438 L 157.414062 144.863281 L 116 144.863281 Z M 116 80.398438 " clip-rule="nonzero"/></clipPath></defs><g clip-path="url(#b43f646d53)"><path fill="#ffd471" d="M 108.945312 100.953125 C 108.945312 124.800781 91.308594 141.316406 68.367188 144.59375 C 81 137.984375 88.960938 129.140625 90.089844 121.191406 C 79.261719 122.070312 69.457031 113.613281 68.457031 102.867188 C 67.464844 92.199219 75.242188 82.316406 85.878906 80.859375 C 89.25 80.398438 92.753906 80.785156 95.929688 82.023438 C 97.542969 82.644531 99.050781 83.457031 100.457031 84.464844 C 101.683594 85.347656 103.335938 86.519531 104.125 87.839844 C 107.246094 91.445312 108.945312 96.199219 108.945312 100.953125 Z M 108.945312 100.953125 " fill-opacity="1" fill-rule="nonzero"/></g><g clip-path="url(#f6d1cc739c)"><path fill="#ffd471" d="M 157.417969 100.953125 C 157.417969 124.800781 139.78125 141.316406 116.839844 144.59375 C 129.46875 137.984375 137.433594 129.140625 138.5625 121.191406 C 127.734375 122.070312 117.929688 113.613281 116.929688 102.867188 C 115.9375 92.199219 123.714844 82.316406 134.347656 80.859375 C 137.71875 80.398438 141.226562 80.785156 144.402344 82.023438 C 146.011719 82.644531 147.523438 83.457031 148.925781 84.464844 C 150.15625 85.347656 151.804688 86.519531 152.597656 87.839844 C 155.714844 91.445312 157.417969 96.199219 157.417969 100.953125 Z M 157.417969 100.953125 " fill-opacity="1" fill-rule="nonzero"/></g></svg>