<svg xmlns="http://www.w3.org/2000/svg" xmlns:xlink="http://www.w3.org/1999/xlink" width="300" zoomAndPan="magnify" viewBox="0 0 224.87999 225" height="300" preserveAspectRatio="xMidYMid meet" version="1.0"><defs><clipPath id="93ba546540"><path d="M 58.597656 58.65625 L 166.539062 58.65625 L 166.539062 166.601562 L 58.597656 166.601562 Z M 58.597656 58.65625 " clip-rule="nonzero"/></clipPath></defs><g clip-path="url(#93ba546540)"><path fill="#000000" d="M 112.558594 58.652344 C 82.753906 58.652344 58.59375 82.816406 58.59375 112.621094 C 58.59375 142.425781 82.753906 166.585938 112.558594 166.585938 C 142.367188 166.585938 166.527344 142.425781 166.527344 112.621094 C 166.527344 82.816406 142.367188 58.652344 112.558594 58.652344 Z M 112.558594 73.765625 C 123.292969 73.765625 131.988281 82.460938 131.988281 93.195312 C 131.988281 103.925781 123.292969 112.621094 112.558594 112.621094 C 101.828125 112.621094 93.132812 103.921875 93.132812 93.195312 C 93.132812 82.464844 101.828125 73.765625 112.558594 73.765625 Z M 112.558594 153.636719 C 98.765625 153.636719 86.59375 146.808594 79.160156 136.367188 C 86.59375 125.929688 98.765625 119.101562 112.558594 119.101562 C 126.355469 119.101562 138.527344 125.929688 145.960938 136.367188 C 138.527344 146.808594 126.355469 153.636719 112.558594 153.636719 Z M 112.558594 153.636719 " fill-opacity="1" fill-rule="nonzero"/></g></svg>