<svg xmlns="http://www.w3.org/2000/svg" xmlns:xlink="http://www.w3.org/1999/xlink" width="300" zoomAndPan="magnify" viewBox="0 0 224.87999 225" height="300" preserveAspectRatio="xMidYMid meet" version="1.0"><defs><clipPath id="2a659d48db"><path d="M 64.472656 63.113281 L 160.421875 63.113281 L 160.421875 160 L 64.472656 160 Z M 64.472656 63.113281 " clip-rule="nonzero"/></clipPath></defs><g clip-path="url(#2a659d48db)"><path fill="#ffffff" d="M 160.421875 111.160156 C 160.417969 115.21875 159.914062 119.207031 158.902344 123.136719 C 157.894531 127.0625 156.410156 130.800781 154.457031 134.351562 C 144.230469 152.925781 123.539062 162.054688 103.796875 158.429688 C 101.304688 157.972656 99.875 155.324219 100.851562 152.980469 C 101.023438 152.5625 101.265625 152.183594 101.570312 151.84375 C 101.875 151.507812 102.226562 151.230469 102.625 151.011719 C 103.023438 150.796875 103.449219 150.652344 103.898438 150.582031 C 104.347656 150.507812 104.792969 150.515625 105.242188 150.597656 C 107.625 151.03125 110.027344 151.246094 112.453125 151.246094 C 134.554688 151.246094 152.472656 133.300781 152.472656 111.160156 C 152.472656 88.933594 134.40625 70.929688 112.179688 71.078125 C 90.132812 71.226562 72.421875 89.097656 72.429688 111.175781 C 72.433594 126.210938 80.703125 139.308594 92.933594 146.164062 C 93.265625 146.347656 93.550781 146.585938 93.796875 146.875 C 94.042969 147.164062 94.230469 147.484375 94.363281 147.839844 C 94.496094 148.195312 94.558594 148.5625 94.558594 148.941406 C 94.5625 149.320312 94.496094 149.6875 94.363281 150.042969 L 93.816406 151.542969 C 93.144531 153.375 91.003906 154.1875 89.300781 153.246094 L 89.265625 153.230469 C 88.476562 152.792969 87.632812 152.523438 86.734375 152.421875 C 85.839844 152.320312 84.957031 152.390625 84.085938 152.640625 L 69.699219 156.742188 C 69.570312 156.78125 69.433594 156.800781 69.296875 156.804688 C 69.160156 156.804688 69.027344 156.792969 68.890625 156.761719 C 68.757812 156.730469 68.632812 156.679688 68.511719 156.617188 C 68.390625 156.554688 68.277344 156.476562 68.175781 156.382812 C 68.074219 156.292969 67.988281 156.1875 67.914062 156.074219 C 67.839844 155.957031 67.777344 155.835938 67.734375 155.707031 C 67.691406 155.578125 67.664062 155.441406 67.65625 155.304688 C 67.644531 155.167969 67.652344 155.035156 67.675781 154.898438 L 70.769531 138.175781 C 71.058594 136.601562 70.828125 135.109375 70.074219 133.695312 C 68.238281 130.230469 66.847656 126.59375 65.902344 122.789062 C 64.957031 118.980469 64.484375 115.117188 64.480469 111.195312 C 64.472656 84.652344 85.949219 63.128906 112.453125 63.117188 C 138.945312 63.117188 160.421875 84.628906 160.421875 111.160156 Z M 160.421875 111.160156 " fill-opacity="1" fill-rule="nonzero"/></g><path fill="#ffffff" d="M 129.5625 126.945312 L 127.8125 129.480469 C 127.550781 129.859375 127.242188 130.1875 126.886719 130.472656 C 126.527344 130.757812 126.140625 130.988281 125.714844 131.15625 C 125.292969 131.328125 124.851562 131.433594 124.398438 131.472656 C 123.941406 131.515625 123.492188 131.488281 123.046875 131.398438 C 100.511719 126.792969 95.609375 105.839844 94.546875 97.175781 C 94.480469 96.652344 94.503906 96.128906 94.617188 95.613281 C 94.726562 95.09375 94.921875 94.609375 95.199219 94.15625 C 95.476562 93.707031 95.820312 93.3125 96.230469 92.980469 C 96.640625 92.644531 97.09375 92.386719 97.59375 92.207031 L 100.644531 91.105469 C 100.8125 91.046875 100.980469 90.996094 101.148438 90.957031 C 101.449219 90.886719 101.75 90.84375 102.054688 90.832031 C 102.359375 90.824219 102.664062 90.839844 102.96875 90.890625 C 103.269531 90.9375 103.5625 91.015625 103.851562 91.125 C 104.136719 91.230469 104.410156 91.363281 104.671875 91.527344 C 104.933594 91.6875 105.175781 91.871094 105.398438 92.082031 C 105.621094 92.289062 105.824219 92.519531 106.003906 92.765625 C 106.183594 93.015625 106.335938 93.277344 106.460938 93.558594 C 106.589844 93.835938 106.6875 94.125 106.757812 94.421875 L 108.082031 100.023438 C 108.25 100.722656 108.253906 101.425781 108.09375 102.128906 C 107.933594 102.828125 107.628906 103.460938 107.179688 104.023438 L 106.1875 105.257812 C 105.894531 105.625 105.664062 106.023438 105.488281 106.460938 C 105.316406 106.898438 105.210938 107.351562 105.175781 107.816406 C 105.140625 108.285156 105.171875 108.75 105.273438 109.207031 C 105.375 109.664062 105.542969 110.097656 105.777344 110.503906 C 107.835938 114.140625 111.007812 116.761719 113.351562 118.34375 C 113.769531 118.625 114.21875 118.832031 114.703125 118.964844 C 115.183594 119.101562 115.675781 119.15625 116.179688 119.128906 C 116.679688 119.105469 117.164062 119 117.632812 118.816406 C 118.097656 118.636719 118.527344 118.382812 118.910156 118.0625 C 119.300781 117.742188 119.730469 117.488281 120.203125 117.308594 C 120.671875 117.125 121.160156 117.023438 121.664062 117 C 122.167969 116.976562 122.664062 117.035156 123.148438 117.171875 C 123.632812 117.308594 124.085938 117.519531 124.503906 117.804688 L 128.355469 120.429688 L 128.382812 120.453125 C 128.636719 120.625 128.867188 120.824219 129.082031 121.042969 C 129.292969 121.265625 129.484375 121.503906 129.648438 121.761719 C 129.8125 122.019531 129.953125 122.289062 130.066406 122.574219 C 130.179688 122.859375 130.261719 123.152344 130.316406 123.453125 C 130.371094 123.757812 130.394531 124.058594 130.390625 124.367188 C 130.386719 124.671875 130.351562 124.976562 130.285156 125.273438 C 130.222656 125.574219 130.128906 125.863281 130.007812 126.144531 C 129.886719 126.425781 129.738281 126.695312 129.5625 126.945312 Z M 129.5625 126.945312 " fill-opacity="1" fill-rule="nonzero"/></svg>