<svg xmlns="http://www.w3.org/2000/svg" xmlns:xlink="http://www.w3.org/1999/xlink" width="400" zoomAndPan="magnify" viewBox="0 0 300 149.999998" height="200" preserveAspectRatio="xMidYMid meet" version="1.0"><defs><g/></defs><g fill="#000000" fill-opacity="1"><g transform="translate(69.805714, 119.707866)"><g><path d="M 26.125 -33.921875 C 26.675781 -33.921875 26.953125 -33.648438 26.953125 -33.109375 L 26.953125 -28.84375 C 26.953125 -28.289062 26.675781 -28.015625 26.125 -28.015625 L 17.734375 -28.015625 C 17.546875 -28.015625 17.453125 -27.914062 17.453125 -27.71875 L 17.453125 -0.828125 C 17.453125 -0.273438 17.175781 0 16.625 0 L 11.4375 0 C 10.882812 0 10.609375 -0.273438 10.609375 -0.828125 L 10.609375 -27.71875 C 10.609375 -27.914062 10.515625 -28.015625 10.328125 -28.015625 L 2.1875 -28.015625 C 1.632812 -28.015625 1.359375 -28.289062 1.359375 -28.84375 L 1.359375 -33.109375 C 1.359375 -33.648438 1.632812 -33.921875 2.1875 -33.921875 Z M 26.125 -33.921875 "/></g></g></g><g fill="#000000" fill-opacity="1"><g transform="translate(101.696867, 119.707866)"><g><path d="M 24.765625 0 C 24.316406 0 24.007812 -0.222656 23.84375 -0.671875 L 22.484375 -5.1875 C 22.453125 -5.34375 22.359375 -5.421875 22.203125 -5.421875 L 10.328125 -5.421875 C 10.160156 -5.421875 10.0625 -5.34375 10.03125 -5.1875 L 8.671875 -0.671875 C 8.515625 -0.222656 8.207031 0 7.75 0 L 2.125 0 C 1.84375 0 1.632812 -0.0859375 1.5 -0.265625 C 1.375 -0.441406 1.359375 -0.660156 1.453125 -0.921875 L 11.78125 -33.25 C 11.9375 -33.695312 12.242188 -33.921875 12.703125 -33.921875 L 19.828125 -33.921875 C 20.273438 -33.921875 20.582031 -33.695312 20.75 -33.25 L 31.0625 -0.921875 C 31.09375 -0.859375 31.109375 -0.757812 31.109375 -0.625 C 31.109375 -0.4375 31.046875 -0.285156 30.921875 -0.171875 C 30.796875 -0.0546875 30.617188 0 30.390625 0 Z M 11.734375 -11.046875 C 11.703125 -10.828125 11.78125 -10.71875 11.96875 -10.71875 L 20.546875 -10.71875 C 20.742188 -10.71875 20.828125 -10.828125 20.796875 -11.046875 L 16.4375 -25.828125 C 16.394531 -25.960938 16.332031 -26.03125 16.25 -26.03125 C 16.175781 -26.03125 16.109375 -25.960938 16.046875 -25.828125 Z M 11.734375 -11.046875 "/></g></g></g><g fill="#000000" fill-opacity="1"><g transform="translate(137.756116, 119.707866)"><g><path d="M 14.4375 0.390625 C 11.914062 0.390625 9.703125 -0.0234375 7.796875 -0.859375 C 5.890625 -1.703125 4.421875 -2.882812 3.390625 -4.40625 C 2.359375 -5.925781 1.84375 -7.707031 1.84375 -9.75 L 1.84375 -10.5625 C 1.84375 -11.113281 2.117188 -11.390625 2.671875 -11.390625 L 7.75 -11.390625 C 8.300781 -11.390625 8.578125 -11.179688 8.578125 -10.765625 L 8.578125 -10.078125 C 8.578125 -8.785156 9.164062 -7.695312 10.34375 -6.8125 C 11.53125 -5.925781 13.078125 -5.484375 14.984375 -5.484375 C 16.691406 -5.484375 17.957031 -5.84375 18.78125 -6.5625 C 19.601562 -7.289062 20.015625 -8.1875 20.015625 -9.25 C 20.015625 -10.03125 19.753906 -10.6875 19.234375 -11.21875 C 18.722656 -11.75 18.03125 -12.21875 17.15625 -12.625 C 16.28125 -13.03125 14.875 -13.585938 12.9375 -14.296875 C 10.738281 -15.035156 8.894531 -15.789062 7.40625 -16.5625 C 5.925781 -17.34375 4.664062 -18.40625 3.625 -19.75 C 2.59375 -21.09375 2.078125 -22.75 2.078125 -24.71875 C 2.078125 -26.65625 2.578125 -28.347656 3.578125 -29.796875 C 4.585938 -31.253906 5.988281 -32.367188 7.78125 -33.140625 C 9.570312 -33.921875 11.613281 -34.3125 13.90625 -34.3125 C 16.363281 -34.3125 18.5625 -33.875 20.5 -33 C 22.4375 -32.132812 23.945312 -30.914062 25.03125 -29.34375 C 26.113281 -27.78125 26.65625 -25.960938 26.65625 -23.890625 L 26.65625 -23.40625 C 26.65625 -22.863281 26.378906 -22.59375 25.828125 -22.59375 L 20.75 -22.59375 C 20.195312 -22.59375 19.921875 -22.753906 19.921875 -23.078125 L 19.921875 -23.5625 C 19.921875 -24.914062 19.363281 -26.066406 18.25 -27.015625 C 17.132812 -27.972656 15.609375 -28.453125 13.671875 -28.453125 C 12.117188 -28.453125 10.921875 -28.128906 10.078125 -27.484375 C 9.242188 -26.835938 8.828125 -25.945312 8.828125 -24.8125 C 8.828125 -24.007812 9.066406 -23.332031 9.546875 -22.78125 C 10.035156 -22.226562 10.769531 -21.722656 11.75 -21.265625 C 12.738281 -20.816406 14.265625 -20.238281 16.328125 -19.53125 C 18.597656 -18.6875 20.394531 -17.945312 21.71875 -17.3125 C 23.039062 -16.6875 24.226562 -15.726562 25.28125 -14.4375 C 26.332031 -13.144531 26.859375 -11.484375 26.859375 -9.453125 C 26.859375 -7.484375 26.347656 -5.753906 25.328125 -4.265625 C 24.304688 -2.773438 22.863281 -1.625 21 -0.8125 C 19.144531 -0.0078125 16.957031 0.390625 14.4375 0.390625 Z M 14.4375 0.390625 "/></g></g></g><g fill="#000000" fill-opacity="1"><g transform="translate(169.986542, 119.707866)"><g><path d="M 26.125 -33.921875 C 26.675781 -33.921875 26.953125 -33.648438 26.953125 -33.109375 L 26.953125 -28.84375 C 26.953125 -28.289062 26.675781 -28.015625 26.125 -28.015625 L 17.734375 -28.015625 C 17.546875 -28.015625 17.453125 -27.914062 17.453125 -27.71875 L 17.453125 -0.828125 C 17.453125 -0.273438 17.175781 0 16.625 0 L 11.4375 0 C 10.882812 0 10.609375 -0.273438 10.609375 -0.828125 L 10.609375 -27.71875 C 10.609375 -27.914062 10.515625 -28.015625 10.328125 -28.015625 L 2.1875 -28.015625 C 1.632812 -28.015625 1.359375 -28.289062 1.359375 -28.84375 L 1.359375 -33.109375 C 1.359375 -33.648438 1.632812 -33.921875 2.1875 -33.921875 Z M 26.125 -33.921875 "/></g></g></g><g fill="#000000" fill-opacity="1"><g transform="translate(201.877691, 119.707866)"><g><path d="M 26.515625 -28.890625 C 26.515625 -28.335938 26.238281 -28.0625 25.6875 -28.0625 L 10.078125 -28.0625 C 9.890625 -28.0625 9.796875 -27.960938 9.796875 -27.765625 L 9.796875 -20.359375 C 9.796875 -20.160156 9.890625 -20.0625 10.078125 -20.0625 L 20.21875 -20.0625 C 20.757812 -20.0625 21.03125 -19.785156 21.03125 -19.234375 L 21.03125 -15.03125 C 21.03125 -14.476562 20.757812 -14.203125 20.21875 -14.203125 L 10.078125 -14.203125 C 9.890625 -14.203125 9.796875 -14.101562 9.796875 -13.90625 L 9.796875 -6.15625 C 9.796875 -5.957031 9.890625 -5.859375 10.078125 -5.859375 L 25.6875 -5.859375 C 26.238281 -5.859375 26.515625 -5.585938 26.515625 -5.046875 L 26.515625 -0.828125 C 26.515625 -0.273438 26.238281 0 25.6875 0 L 3.78125 0 C 3.226562 0 2.953125 -0.273438 2.953125 -0.828125 L 2.953125 -33.109375 C 2.953125 -33.648438 3.226562 -33.921875 3.78125 -33.921875 L 25.6875 -33.921875 C 26.238281 -33.921875 26.515625 -33.648438 26.515625 -33.109375 Z M 26.515625 -28.890625 "/></g></g></g><g fill="#000000" fill-opacity="1"><g transform="translate(36.832113, 57.640602)"><g><path d="M -0.640625 -15.375 C -0.734375 -15.113281 -0.863281 -14.984375 -1.03125 -14.984375 C -1.207031 -14.984375 -1.296875 -15.195312 -1.296875 -15.625 C -1.296875 -16.0625 -0.921875 -16.832031 -0.171875 -17.9375 C 0.578125 -19.039062 1.660156 -20.234375 3.078125 -21.515625 C 4.503906 -22.796875 6.09375 -24.007812 7.84375 -25.15625 C 9.59375 -26.300781 11.625 -27.253906 13.9375 -28.015625 C 16.25 -28.773438 18.539062 -29.15625 20.8125 -29.15625 C 21.039062 -29.070312 21.332031 -28.960938 21.6875 -28.828125 C 22.050781 -28.703125 22.523438 -28.429688 23.109375 -28.015625 C 23.703125 -27.597656 24 -27.21875 24 -26.875 C 24 -26.53125 23.925781 -26.273438 23.78125 -26.109375 C 21.570312 -24.097656 19.09375 -21.671875 16.34375 -18.828125 C 13.601562 -15.984375 11.5 -13.613281 10.03125 -11.71875 L 6.9375 -7.671875 C 6.757812 -7.410156 6.671875 -7.207031 6.671875 -7.0625 L 6.671875 -7.015625 L 7.359375 -7.359375 C 7.421875 -7.390625 7.46875 -7.421875 7.5 -7.453125 C 17.976562 -14.835938 25 -20.066406 28.5625 -23.140625 C 28.644531 -23.253906 28.757812 -23.3125 28.90625 -23.3125 C 29.050781 -23.3125 29.148438 -23.265625 29.203125 -23.171875 C 29.265625 -23.085938 29.539062 -22.820312 30.03125 -22.375 C 30.519531 -21.9375 30.765625 -21.609375 30.765625 -21.390625 C 30.765625 -21.171875 30.675781 -20.988281 30.5 -20.84375 C 27.65625 -18.144531 24.753906 -14.753906 21.796875 -10.671875 C 18.835938 -6.597656 17.359375 -3.457031 17.359375 -1.25 C 17.359375 -0.988281 17.488281 -0.859375 17.75 -0.859375 C 18.320312 -0.859375 19.671875 -1.632812 21.796875 -3.1875 C 23.921875 -4.738281 26.335938 -6.707031 29.046875 -9.09375 C 31.765625 -11.476562 34.640625 -14.398438 37.671875 -17.859375 C 40.703125 -21.316406 43.179688 -24.679688 45.109375 -27.953125 C 45.359375 -28.503906 45.554688 -28.957031 45.703125 -29.3125 C 45.847656 -29.675781 46.070312 -29.859375 46.375 -29.859375 C 46.675781 -29.859375 46.988281 -29.429688 47.3125 -28.578125 C 47.644531 -27.734375 47.8125 -26.992188 47.8125 -26.359375 C 47.8125 -25.359375 46.660156 -23.347656 44.359375 -20.328125 C 42.066406 -17.316406 39.382812 -14.203125 36.3125 -10.984375 C 33.238281 -7.765625 29.976562 -4.898438 26.53125 -2.390625 C 23.082031 0.117188 20.367188 1.375 18.390625 1.375 C 17.441406 1.375 16.5 1 15.5625 0.25 C 14.632812 -0.488281 14.171875 -1.691406 14.171875 -3.359375 C 14.171875 -5.429688 14.789062 -7.554688 16.03125 -9.734375 C 16.507812 -10.597656 17.097656 -11.375 17.796875 -12.0625 L 18.78125 -13.21875 L 18.953125 -13.5625 L 18.953125 -13.609375 C 18.953125 -13.671875 18.9375 -13.703125 18.90625 -13.703125 C 18.820312 -13.703125 18.695312 -13.613281 18.53125 -13.4375 C 12.125 -7.8125 7.785156 -4.070312 5.515625 -2.21875 C 3.242188 -0.363281 1.90625 0.5625 1.5 0.5625 C 1.101562 0.5625 0.773438 0.359375 0.515625 -0.046875 C 0.398438 -0.191406 0.273438 -0.34375 0.140625 -0.5 C 0.015625 -0.65625 -0.0703125 -0.769531 -0.125 -0.84375 C -0.1875 -0.914062 -0.242188 -0.984375 -0.296875 -1.046875 C -0.359375 -1.117188 -0.40625 -1.171875 -0.4375 -1.203125 C -0.457031 -1.347656 -0.46875 -1.5625 -0.46875 -1.84375 C -0.46875 -2.132812 -0.367188 -2.550781 -0.171875 -3.09375 C 0.0234375 -3.644531 0.21875 -4.171875 0.40625 -4.671875 C 0.59375 -5.171875 1.128906 -6.234375 2.015625 -7.859375 C 2.910156 -9.484375 3.972656 -11.117188 5.203125 -12.765625 C 6.441406 -14.421875 8.253906 -16.441406 10.640625 -18.828125 C 13.023438 -21.210938 15.695312 -23.507812 18.65625 -25.71875 C 19.195312 -26.144531 19.46875 -26.414062 19.46875 -26.53125 C 19.46875 -26.644531 19.410156 -26.703125 19.296875 -26.703125 C 17.140625 -26.703125 13.554688 -25.265625 8.546875 -22.390625 C 3.535156 -19.523438 0.472656 -17.1875 -0.640625 -15.375 Z M -0.640625 -15.375 "/></g></g></g><g fill="#000000" fill-opacity="1"><g transform="translate(72.160716, 57.640602)"><g/></g></g><g fill="#000000" fill-opacity="1"><g transform="translate(82.931636, 57.640602)"><g><path d="M 0.6875 -22.140625 C 0.6875 -22.566406 0.972656 -22.941406 1.546875 -23.265625 L 6.59375 -25.25 C 6.707031 -25.300781 6.867188 -25.328125 7.078125 -25.328125 C 7.296875 -25.328125 7.488281 -25.226562 7.65625 -25.03125 C 7.832031 -24.832031 8.019531 -24.734375 8.21875 -24.734375 C 8.425781 -24.734375 8.851562 -24.8125 9.5 -24.96875 C 10.144531 -25.125 11.007812 -25.320312 12.09375 -25.5625 C 13.1875 -25.8125 14.410156 -26.050781 15.765625 -26.28125 C 18.921875 -26.820312 22.207031 -27.09375 25.625 -27.09375 C 29.675781 -27.09375 32.578125 -26.789062 34.328125 -26.1875 C 35.023438 -25.925781 35.609375 -25.570312 36.078125 -25.125 C 36.546875 -24.6875 36.78125 -24.148438 36.78125 -23.515625 C 36.78125 -23.140625 36.523438 -22.953125 36.015625 -22.953125 C 28.835938 -22.753906 22.960938 -22.296875 18.390625 -21.578125 C 17.929688 -21.523438 17.703125 -21.367188 17.703125 -21.109375 C 17.703125 -21.023438 17.707031 -20.945312 17.71875 -20.875 C 17.738281 -20.800781 17.632812 -20.632812 17.40625 -20.375 L 12.53125 -15.15625 C 12.332031 -14.957031 12.234375 -14.804688 12.234375 -14.703125 C 12.234375 -14.609375 12.269531 -14.5625 12.34375 -14.5625 C 12.414062 -14.5625 12.59375 -14.585938 12.875 -14.640625 C 14.75 -14.753906 16.472656 -14.8125 18.046875 -14.8125 C 19.628906 -14.8125 20.535156 -14.726562 20.765625 -14.5625 C 22.023438 -13.613281 22.765625 -12.992188 22.984375 -12.703125 C 23.203125 -12.421875 23.3125 -12.191406 23.3125 -12.015625 C 23.3125 -11.640625 22.992188 -11.410156 22.359375 -11.328125 C 14.773438 -10.578125 10.679688 -10.207031 10.078125 -10.21875 C 9.472656 -10.238281 9.085938 -10.25 8.921875 -10.25 C 8.460938 -10.25 7.941406 -9.890625 7.359375 -9.171875 L 2.109375 -2.203125 C 1.960938 -1.972656 1.890625 -1.804688 1.890625 -1.703125 C 1.890625 -1.597656 1.945312 -1.546875 2.0625 -1.546875 C 2.175781 -1.546875 2.347656 -1.601562 2.578125 -1.71875 C 5.285156 -2.15625 7.804688 -2.375 10.140625 -2.375 C 12.484375 -2.375 14.226562 -2.300781 15.375 -2.15625 C 16.957031 -2.15625 18.65625 -0.992188 20.46875 1.328125 C 20.601562 1.535156 20.671875 1.722656 20.671875 1.890625 C 20.671875 2.066406 20.457031 2.15625 20.03125 2.15625 C 12.882812 2.15625 7.441406 2.296875 3.703125 2.578125 C 3.554688 2.609375 3.367188 2.625 3.140625 2.625 C 1.910156 2.625 1.066406 2.335938 0.609375 1.765625 C 0.515625 1.585938 0.367188 1.5 0.171875 1.5 C -0.0234375 1.5 -0.203125 1.597656 -0.359375 1.796875 C -0.523438 2.003906 -0.648438 2.109375 -0.734375 2.109375 C -0.816406 2.109375 -0.988281 2.019531 -1.25 1.84375 C -1.507812 1.675781 -1.773438 1.382812 -2.046875 0.96875 C -2.316406 0.550781 -2.453125 0.109375 -2.453125 -0.359375 C -2.453125 -0.835938 -2.359375 -1.273438 -2.171875 -1.671875 C -1.984375 -2.078125 -1.738281 -2.59375 -1.4375 -3.21875 C -1.132812 -3.851562 -0.460938 -4.9375 0.578125 -6.46875 C 1.628906 -8.007812 2.726562 -9.328125 3.875 -10.421875 C 4.019531 -10.566406 4.09375 -10.703125 4.09375 -10.828125 C 4.09375 -10.960938 3.941406 -11.03125 3.640625 -11.03125 C 3.335938 -11.03125 3.035156 -11.132812 2.734375 -11.34375 C 2.429688 -11.5625 2.28125 -11.863281 2.28125 -12.25 C 2.28125 -12.644531 2.785156 -12.96875 3.796875 -13.21875 L 6.109375 -13.828125 C 6.140625 -13.828125 6.15625 -13.828125 6.15625 -13.828125 C 6.613281 -13.828125 7.070312 -14.128906 7.53125 -14.734375 C 10.863281 -17.972656 12.90625 -19.78125 13.65625 -20.15625 C 13.914062 -20.332031 14.046875 -20.46875 14.046875 -20.5625 C 14.046875 -20.664062 13.957031 -20.71875 13.78125 -20.71875 C 13.613281 -20.71875 13.472656 -20.703125 13.359375 -20.671875 C 10.679688 -20.242188 8.550781 -20.03125 6.96875 -20.03125 C 5.394531 -20.03125 4.25 -20.101562 3.53125 -20.25 C 2.8125 -20.394531 2.28125 -20.566406 1.9375 -20.765625 C 1.1875 -21.253906 0.785156 -21.640625 0.734375 -21.921875 Z M 0.6875 -22.140625 "/></g></g></g><g fill="#000000" fill-opacity="1"><g transform="translate(104.171884, 57.640602)"><g/></g></g><g fill="#000000" fill-opacity="1"><g transform="translate(114.942803, 57.640602)"><g><path d="M 17.796875 -10.640625 L 13.390625 -10.46875 C 10.691406 -10.46875 8.875 -10.5625 7.9375 -10.75 C 7.007812 -10.9375 6.175781 -11.15625 5.4375 -11.40625 C 4.707031 -11.664062 4.128906 -11.972656 3.703125 -12.328125 C 2.640625 -13.128906 2.109375 -14.203125 2.109375 -15.546875 C 2.109375 -15.953125 2.351562 -16.554688 2.84375 -17.359375 C 3.332031 -18.160156 4.171875 -19.113281 5.359375 -20.21875 C 6.554688 -21.332031 7.976562 -22.382812 9.625 -23.375 C 11.28125 -24.363281 13.457031 -25.226562 16.15625 -25.96875 C 18.851562 -26.71875 21.78125 -27.148438 24.9375 -27.265625 C 26.0625 -27.265625 27.25 -27.128906 28.5 -26.859375 C 29.75 -26.585938 30.78125 -26.265625 31.59375 -25.890625 C 32.414062 -25.515625 33.140625 -24.945312 33.765625 -24.1875 C 34.398438 -23.425781 34.71875 -22.546875 34.71875 -21.546875 C 34.71875 -20.734375 33.941406 -19.867188 32.390625 -18.953125 C 30.671875 -17.921875 28.394531 -17.40625 25.5625 -17.40625 C 22.738281 -17.40625 21.328125 -17.601562 21.328125 -18 C 21.328125 -18.320312 22.148438 -18.695312 23.796875 -19.125 C 25.453125 -19.550781 27.113281 -20.050781 28.78125 -20.625 C 30.445312 -21.207031 31.28125 -21.859375 31.28125 -22.578125 C 31.28125 -22.953125 30.644531 -23.140625 29.375 -23.140625 C 21.050781 -23.140625 13.898438 -20.984375 7.921875 -16.671875 C 6.804688 -15.835938 6.25 -15.117188 6.25 -14.515625 C 6.25 -13.566406 9.234375 -13.09375 15.203125 -13.09375 C 20.578125 -13.039062 23.265625 -11.601562 23.265625 -8.78125 C 23.265625 -6.769531 21.898438 -4.859375 19.171875 -3.046875 C 16.441406 -1.242188 13.226562 0.15625 9.53125 1.15625 C 5.84375 2.164062 2.378906 2.6875 -0.859375 2.71875 C -2.378906 2.71875 -3.988281 2.3125 -5.6875 1.5 C -7.382812 0.695312 -8.234375 -0.273438 -8.234375 -1.421875 C -8.234375 -1.796875 -7.914062 -2 -7.28125 -2.03125 C -3.894531 -2.394531 -1.726562 -2.796875 -0.78125 -3.234375 C -0.550781 -3.285156 -0.363281 -3.3125 -0.21875 -3.3125 C -0.0703125 -3.3125 0 -3.285156 0 -3.234375 C 0 -3.117188 -0.171875 -2.929688 -0.515625 -2.671875 C -0.828125 -2.492188 -1.171875 -2.335938 -1.546875 -2.203125 C -2.347656 -1.910156 -2.75 -1.71875 -2.75 -1.625 C -2.75 -1.539062 -2.460938 -1.5 -1.890625 -1.5 C -1.316406 -1.5 0.128906 -1.726562 2.453125 -2.1875 C 4.773438 -2.65625 7.265625 -3.25 9.921875 -3.96875 C 12.585938 -4.6875 14.9375 -5.578125 16.96875 -6.640625 C 19.007812 -7.703125 20.03125 -8.71875 20.03125 -9.6875 C 20.03125 -10.320312 19.285156 -10.640625 17.796875 -10.640625 Z M 17.796875 -10.640625 "/></g></g></g><g fill="#000000" fill-opacity="1"><g transform="translate(139.328155, 57.640602)"><g/></g></g><g fill="#000000" fill-opacity="1"><g transform="translate(150.099074, 57.640602)"><g><path d="M 0.9375 -21.015625 C 0.539062 -21.015625 -0.164062 -21.398438 -1.1875 -22.171875 C -2.207031 -22.953125 -2.71875 -23.585938 -2.71875 -24.078125 C -2.71875 -24.566406 -2.375 -24.941406 -1.6875 -25.203125 C -0.363281 -25.773438 0.972656 -26.21875 2.328125 -26.53125 L 2.96875 -26.671875 C 3.113281 -26.722656 3.242188 -26.75 3.359375 -26.75 C 3.554688 -26.75 3.65625 -26.640625 3.65625 -26.421875 C 3.65625 -26.210938 3.769531 -26.109375 4 -26.109375 C 4.226562 -26.109375 5.28125 -26.304688 7.15625 -26.703125 C 12.75 -27.859375 18.046875 -28.4375 23.046875 -28.4375 C 25.972656 -28.4375 28.460938 -28.082031 30.515625 -27.375 C 32.566406 -26.675781 33.59375 -25.675781 33.59375 -24.375 C 33.59375 -24.09375 33.195312 -23.953125 32.40625 -23.953125 C 31.625 -23.953125 30.679688 -23.9375 29.578125 -23.90625 C 28.472656 -23.875 27.085938 -23.832031 25.421875 -23.78125 C 21.515625 -23.601562 19.5625 -23.210938 19.5625 -22.609375 C 19.5625 -22.492188 19.585938 -22.410156 19.640625 -22.359375 C 19.640625 -22.210938 19.484375 -21.972656 19.171875 -21.640625 C 18.859375 -21.316406 18.367188 -20.796875 17.703125 -20.078125 C 17.046875 -19.359375 15.8125 -17.984375 14 -15.953125 C 12.1875 -13.929688 10.519531 -12.03125 9 -10.25 C 5.070312 -5.601562 2.359375 -2.015625 0.859375 0.515625 C 0.773438 1.492188 0.488281 1.984375 0 1.984375 C -0.375 1.984375 -0.867188 1.695312 -1.484375 1.125 C -2.097656 0.550781 -2.40625 -0.148438 -2.40625 -0.984375 C -2.40625 -2.535156 -1.242188 -4.71875 1.078125 -7.53125 C 3.398438 -10.351562 7.992188 -14.878906 14.859375 -21.109375 C 15.171875 -21.421875 15.457031 -21.679688 15.71875 -21.890625 C 16.125 -22.203125 16.328125 -22.382812 16.328125 -22.4375 C 16.328125 -22.5 16.238281 -22.53125 16.0625 -22.53125 C 15.894531 -22.53125 15.550781 -22.5 15.03125 -22.4375 L 1.859375 -21.15625 C 1.648438 -21.0625 1.34375 -21.015625 0.9375 -21.015625 Z M 0.9375 -21.015625 "/></g></g></g><g fill="#000000" fill-opacity="1"><g transform="translate(159.922148, 57.640602)"><g/></g></g><g fill="#000000" fill-opacity="1"><g transform="translate(170.693075, 57.640602)"><g><path d="M 0.6875 -22.140625 C 0.6875 -22.566406 0.972656 -22.941406 1.546875 -23.265625 L 6.59375 -25.25 C 6.707031 -25.300781 6.867188 -25.328125 7.078125 -25.328125 C 7.296875 -25.328125 7.488281 -25.226562 7.65625 -25.03125 C 7.832031 -24.832031 8.019531 -24.734375 8.21875 -24.734375 C 8.425781 -24.734375 8.851562 -24.8125 9.5 -24.96875 C 10.144531 -25.125 11.007812 -25.320312 12.09375 -25.5625 C 13.1875 -25.8125 14.410156 -26.050781 15.765625 -26.28125 C 18.921875 -26.820312 22.207031 -27.09375 25.625 -27.09375 C 29.675781 -27.09375 32.578125 -26.789062 34.328125 -26.1875 C 35.023438 -25.925781 35.609375 -25.570312 36.078125 -25.125 C 36.546875 -24.6875 36.78125 -24.148438 36.78125 -23.515625 C 36.78125 -23.140625 36.523438 -22.953125 36.015625 -22.953125 C 28.835938 -22.753906 22.960938 -22.296875 18.390625 -21.578125 C 17.929688 -21.523438 17.703125 -21.367188 17.703125 -21.109375 C 17.703125 -21.023438 17.707031 -20.945312 17.71875 -20.875 C 17.738281 -20.800781 17.632812 -20.632812 17.40625 -20.375 L 12.53125 -15.15625 C 12.332031 -14.957031 12.234375 -14.804688 12.234375 -14.703125 C 12.234375 -14.609375 12.269531 -14.5625 12.34375 -14.5625 C 12.414062 -14.5625 12.59375 -14.585938 12.875 -14.640625 C 14.75 -14.753906 16.472656 -14.8125 18.046875 -14.8125 C 19.628906 -14.8125 20.535156 -14.726562 20.765625 -14.5625 C 22.023438 -13.613281 22.765625 -12.992188 22.984375 -12.703125 C 23.203125 -12.421875 23.3125 -12.191406 23.3125 -12.015625 C 23.3125 -11.640625 22.992188 -11.410156 22.359375 -11.328125 C 14.773438 -10.578125 10.679688 -10.207031 10.078125 -10.21875 C 9.472656 -10.238281 9.085938 -10.25 8.921875 -10.25 C 8.460938 -10.25 7.941406 -9.890625 7.359375 -9.171875 L 2.109375 -2.203125 C 1.960938 -1.972656 1.890625 -1.804688 1.890625 -1.703125 C 1.890625 -1.597656 1.945312 -1.546875 2.0625 -1.546875 C 2.175781 -1.546875 2.347656 -1.601562 2.578125 -1.71875 C 5.285156 -2.15625 7.804688 -2.375 10.140625 -2.375 C 12.484375 -2.375 14.226562 -2.300781 15.375 -2.15625 C 16.957031 -2.15625 18.65625 -0.992188 20.46875 1.328125 C 20.601562 1.535156 20.671875 1.722656 20.671875 1.890625 C 20.671875 2.066406 20.457031 2.15625 20.03125 2.15625 C 12.882812 2.15625 7.441406 2.296875 3.703125 2.578125 C 3.554688 2.609375 3.367188 2.625 3.140625 2.625 C 1.910156 2.625 1.066406 2.335938 0.609375 1.765625 C 0.515625 1.585938 0.367188 1.5 0.171875 1.5 C -0.0234375 1.5 -0.203125 1.597656 -0.359375 1.796875 C -0.523438 2.003906 -0.648438 2.109375 -0.734375 2.109375 C -0.816406 2.109375 -0.988281 2.019531 -1.25 1.84375 C -1.507812 1.675781 -1.773438 1.382812 -2.046875 0.96875 C -2.316406 0.550781 -2.453125 0.109375 -2.453125 -0.359375 C -2.453125 -0.835938 -2.359375 -1.273438 -2.171875 -1.671875 C -1.984375 -2.078125 -1.738281 -2.59375 -1.4375 -3.21875 C -1.132812 -3.851562 -0.460938 -4.9375 0.578125 -6.46875 C 1.628906 -8.007812 2.726562 -9.328125 3.875 -10.421875 C 4.019531 -10.566406 4.09375 -10.703125 4.09375 -10.828125 C 4.09375 -10.960938 3.941406 -11.03125 3.640625 -11.03125 C 3.335938 -11.03125 3.035156 -11.132812 2.734375 -11.34375 C 2.429688 -11.5625 2.28125 -11.863281 2.28125 -12.25 C 2.28125 -12.644531 2.785156 -12.96875 3.796875 -13.21875 L 6.109375 -13.828125 C 6.140625 -13.828125 6.15625 -13.828125 6.15625 -13.828125 C 6.613281 -13.828125 7.070312 -14.128906 7.53125 -14.734375 C 10.863281 -17.972656 12.90625 -19.78125 13.65625 -20.15625 C 13.914062 -20.332031 14.046875 -20.46875 14.046875 -20.5625 C 14.046875 -20.664062 13.957031 -20.71875 13.78125 -20.71875 C 13.613281 -20.71875 13.472656 -20.703125 13.359375 -20.671875 C 10.679688 -20.242188 8.550781 -20.03125 6.96875 -20.03125 C 5.394531 -20.03125 4.25 -20.101562 3.53125 -20.25 C 2.8125 -20.394531 2.28125 -20.566406 1.9375 -20.765625 C 1.1875 -21.253906 0.785156 -21.640625 0.734375 -21.921875 Z M 0.6875 -22.140625 "/></g></g></g><g fill="#000000" fill-opacity="1"><g transform="translate(191.933331, 57.640602)"><g/></g></g><g fill="#000000" fill-opacity="1"><g transform="translate(202.70425, 57.640602)"><g><path d="M -2.203125 -15.984375 C -2.203125 -16.867188 -1.851562 -17.726562 -1.15625 -18.5625 C -0.46875 -19.394531 0.289062 -20.195312 1.125 -20.96875 C 1.957031 -21.75 3.179688 -22.675781 4.796875 -23.75 C 6.421875 -24.832031 8.148438 -25.796875 9.984375 -26.640625 C 11.828125 -27.492188 14.082031 -28.21875 16.75 -28.8125 C 19.425781 -29.414062 22.1875 -29.71875 25.03125 -29.71875 C 27.5 -29.71875 29.953125 -29.242188 32.390625 -28.296875 C 33.628906 -27.804688 34.640625 -27.09375 35.421875 -26.15625 C 36.210938 -25.226562 36.609375 -24.148438 36.609375 -22.921875 C 36.609375 -20.992188 35.445312 -19.066406 33.125 -17.140625 C 30.800781 -15.222656 26.738281 -13.082031 20.9375 -10.71875 C 20.363281 -10.582031 20.078125 -10.382812 20.078125 -10.125 C 20.078125 -10.039062 20.132812 -9.941406 20.25 -9.828125 C 24.320312 -5.109375 27.679688 -1.816406 30.328125 0.046875 C 30.640625 0.304688 30.796875 0.5625 30.796875 0.8125 C 30.796875 1.445312 29.863281 1.765625 28 1.765625 C 26.132812 1.765625 24.582031 1.160156 23.34375 -0.046875 C 18.125 -5.585938 14.835938 -9.289062 13.484375 -11.15625 C 13.453125 -11.269531 13.398438 -11.328125 13.328125 -11.328125 C 13.253906 -11.328125 13.175781 -11.269531 13.09375 -11.15625 C 8.4375 -5.4375 5.753906 -1.6875 5.046875 0.09375 C 5.046875 0.550781 4.960938 0.78125 4.796875 0.78125 C 4.640625 0.78125 4.390625 0.691406 4.046875 0.515625 C 3.703125 0.347656 3.34375 0.0195312 2.96875 -0.46875 C 2.59375 -0.957031 2.40625 -1.550781 2.40625 -2.25 C 2.40625 -2.957031 2.695312 -3.832031 3.28125 -4.875 C 7.351562 -10.78125 11.660156 -15.742188 16.203125 -19.765625 C 18.117188 -21.460938 19.925781 -22.785156 21.625 -23.734375 C 21.882812 -23.960938 22.117188 -24.078125 22.328125 -24.078125 C 22.546875 -24.078125 22.804688 -23.976562 23.109375 -23.78125 C 23.410156 -23.582031 23.5625 -23.34375 23.5625 -23.0625 C 23.5625 -22.789062 23.445312 -22.554688 23.21875 -22.359375 C 19.457031 -18.566406 16.875 -15.738281 15.46875 -13.875 C 15.09375 -13.46875 14.90625 -13.191406 14.90625 -13.046875 C 14.90625 -12.910156 14.976562 -12.84375 15.125 -12.84375 L 15.296875 -12.84375 C 18.742188 -13.789062 21.53125 -14.738281 23.65625 -15.6875 C 28.15625 -17.71875 31.570312 -19.867188 33.90625 -22.140625 C 34.394531 -22.597656 34.640625 -23.046875 34.640625 -23.484375 C 34.640625 -24.140625 34.082031 -24.640625 32.96875 -24.984375 C 31.863281 -25.328125 30.113281 -25.5 27.71875 -25.5 C 25.320312 -25.5 22.382812 -25.140625 18.90625 -24.421875 C 15.4375 -23.703125 11.976562 -22.546875 8.53125 -20.953125 C 5.082031 -19.359375 2.523438 -17.515625 0.859375 -15.421875 C 0.628906 -15.160156 0.515625 -14.976562 0.515625 -14.875 C 0.515625 -14.78125 0.671875 -14.734375 0.984375 -14.734375 C 1.304688 -14.734375 2.289062 -15.09375 3.9375 -15.8125 C 5.59375 -16.53125 7.007812 -17.234375 8.1875 -17.921875 C 10.019531 -19.148438 11.164062 -19.765625 11.625 -19.765625 C 11.800781 -19.765625 11.890625 -19.726562 11.890625 -19.65625 C 11.890625 -19.59375 11.707031 -19.34375 11.34375 -18.90625 C 10.988281 -18.476562 10.488281 -17.929688 9.84375 -17.265625 C 9.195312 -16.609375 8.398438 -15.878906 7.453125 -15.078125 C 5.296875 -13.210938 3.3125 -12.28125 1.5 -12.28125 C 0.53125 -12.28125 -0.257812 -12.585938 -0.875 -13.203125 C -1.5 -13.816406 -1.867188 -14.441406 -1.984375 -15.078125 Z M -2.203125 -15.984375 "/></g></g></g><g fill="#000000" fill-opacity="1"><g transform="translate(230.708628, 57.640602)"><g/></g></g><g fill="#000000" fill-opacity="1"><g transform="translate(241.479547, 57.640602)"><g><path d="M 20.9375 -27.875 C 21.769531 -28.5625 22.71875 -28.90625 23.78125 -28.90625 C 24.84375 -28.90625 25.375 -28.691406 25.375 -28.265625 C 25.375 -28.085938 25.242188 -27.828125 24.984375 -27.484375 C 24.753906 -26.960938 23.675781 -25.007812 21.75 -21.625 C 16.726562 -12.832031 14.21875 -6.972656 14.21875 -4.046875 C 14.21875 -3.816406 14.273438 -3.703125 14.390625 -3.703125 C 14.554688 -3.703125 14.84375 -3.988281 15.25 -4.5625 C 16.425781 -6.601562 17.929688 -8.941406 19.765625 -11.578125 C 21.609375 -14.222656 23.347656 -16.550781 24.984375 -18.5625 C 26.617188 -20.570312 28.46875 -22.453125 30.53125 -24.203125 C 32.601562 -25.960938 34.488281 -27.054688 36.1875 -27.484375 C 39 -27.941406 40.820312 -28.171875 41.65625 -28.171875 C 41.738281 -28.140625 41.78125 -28.070312 41.78125 -27.96875 C 41.78125 -27.875 41.625 -27.738281 41.3125 -27.5625 C 38.0625 -25.757812 34.03125 -22.320312 29.21875 -17.25 C 24.414062 -12.1875 20.078125 -6.984375 16.203125 -1.640625 C 15.160156 0.109375 14.351562 1.195312 13.78125 1.625 C 13.207031 2.0625 12.519531 2.28125 11.71875 2.28125 C 10.226562 2.28125 9.484375 0.703125 9.484375 -2.453125 C 9.484375 -3.828125 9.753906 -5.234375 10.296875 -6.671875 C 12.304688 -12.046875 14.1875 -15.894531 15.9375 -18.21875 C 16.914062 -19.65625 17.40625 -20.445312 17.40625 -20.59375 C 17.40625 -20.675781 17.234375 -20.503906 16.890625 -20.078125 C 9.734375 -11.085938 4.675781 -5.195312 1.71875 -2.40625 C -0.3125 -0.28125 -2.617188 1.898438 -5.203125 4.140625 C -7.796875 6.378906 -9.867188 7.914062 -11.421875 8.75 C -11.898438 9.144531 -12.410156 9.34375 -12.953125 9.34375 C -13.503906 9.34375 -14.164062 9.113281 -14.9375 8.65625 C -15.71875 8.195312 -16.109375 7.664062 -16.109375 7.0625 C -16.109375 6.75 -15.9375 6.460938 -15.59375 6.203125 L -8.53125 0.265625 C -8.101562 -0.109375 -7.835938 -0.296875 -7.734375 -0.296875 C -7.628906 -0.296875 -7.578125 -0.242188 -7.578125 -0.140625 C -7.578125 -0.046875 -7.617188 0.0820312 -7.703125 0.25 C -7.796875 0.425781 -7.9375 0.613281 -8.125 0.8125 C -8.3125 1.019531 -8.503906 1.207031 -8.703125 1.375 L -9.4375 2.15625 C -10.320312 3.039062 -10.765625 3.535156 -10.765625 3.640625 C -10.765625 3.742188 -10.734375 3.796875 -10.671875 3.796875 C -10.617188 3.796875 -10.476562 3.707031 -10.25 3.53125 C -7.488281 1.632812 -3.507812 -1.929688 1.6875 -7.171875 C 6.882812 -12.410156 11.390625 -17.171875 15.203125 -21.453125 Z M 20.9375 -27.875 "/></g></g></g></svg>